<svg width="12" height="20" viewBox="0 0 12 20" fill="none" xmlns="http://www.w3.org/2000/svg">
<path fill-rule="evenodd" clip-rule="evenodd" d="M9.66971 0.624908L11.3751 1.6697L10.8527 2.52241L10 2.00001C10.8527 2.52241 10.8529 2.52216 10.8527 2.52241L10.851 2.52518L10.8478 2.53033L10.8371 2.54762C10.828 2.56221 10.8151 2.58286 10.7984 2.60921C10.7649 2.66192 10.7164 2.73746 10.6535 2.83294C10.5278 3.02381 10.3444 3.29479 10.1092 3.62244C9.63959 4.27659 8.95911 5.16258 8.11444 6.09029C6.91851 7.40378 5.32769 8.87484 3.48386 9.84953C5.32179 10.9701 6.91701 12.5189 8.12429 13.8848C8.96459 14.8356 9.64215 15.7269 10.1102 16.3812C10.3445 16.7088 10.5272 16.9781 10.6524 17.1673C10.7149 17.2619 10.7632 17.3365 10.7964 17.3884C10.813 17.4144 10.8258 17.4346 10.8348 17.4489L10.8454 17.4658L10.8485 17.4708L10.8495 17.4724C10.8496 17.4726 10.8501 17.4734 10 18L10.8501 17.4734L11.3767 18.3235L9.67649 19.3767L9.15016 18.527L9.14879 18.5248L9.14195 18.5139L9.11134 18.4657C9.0835 18.4222 9.04094 18.3563 8.98438 18.2708C8.87124 18.0998 8.70235 17.8507 8.48357 17.5448C8.04537 16.9323 7.41043 16.0972 6.62573 15.2093C5.03247 13.4067 2.91978 11.5 0.662338 10.6902C0.246808 10.5411 -0.0218106 10.1372 0.00139298 9.69633C0.0245966 9.25548 0.334132 8.882 0.763014 8.77738C2.96317 8.24066 5.04447 6.49135 6.63558 4.74381C7.41591 3.88677 8.04793 3.06423 8.48455 2.45606C8.70245 2.15254 8.87062 1.90389 8.9832 1.73294C9.03947 1.6475 9.08177 1.58158 9.10939 1.53805L9.13967 1.48993L9.14635 1.47916L9.14731 1.47761L9.66971 0.624908Z" fill="#0F2647"/>
</svg>
