<svg width="15" height="16" viewBox="0 0 15 16" fill="none" xmlns="http://www.w3.org/2000/svg">
<path fill-rule="evenodd" clip-rule="evenodd" d="M2.75 0C1.23122 0 0 1.23122 0 2.75V14.75L1.11423 15.4056L6.44295 12.4452C6.82047 12.2355 7.27953 12.2355 7.65705 12.4452L12.9858 15.4056L14.1 14.75V2.75C14.1 1.23122 12.8688 0 11.35 0H2.75ZM1.5 2.75C1.5 2.05964 2.05964 1.5 2.75 1.5H11.35C12.0404 1.5 12.6 2.05964 12.6 2.75V13.4754L8.38552 11.134C7.55496 10.6726 6.54504 10.6726 5.71448 11.134L1.5 13.4754V2.75ZM5.28561 9.47082L7.0502 8.58853L8.81479 9.47082L9.48561 9.80623L10.1564 8.46459L9.48561 8.12918L7.38561 7.07918H6.71479L4.61479 8.12918L3.94396 8.46459L4.61479 9.80623L5.28561 9.47082Z" fill="white" fill-opacity="0.45"/>
</svg>
