<svg width="15" height="16" viewBox="0 0 15 16" fill="none" xmlns="http://www.w3.org/2000/svg">
<path fill-rule="evenodd" clip-rule="evenodd" d="M3 0.25C1.48122 0.25 0.25 1.48122 0.25 3V15L1.36423 15.6556L6.69295 12.6952C7.07047 12.4855 7.52953 12.4855 7.90705 12.6952L13.2358 15.6556L14.35 15V3C14.35 1.48122 13.1188 0.25 11.6 0.25H3ZM1.75 3C1.75 2.30964 2.30964 1.75 3 1.75H11.6C12.2904 1.75 12.85 2.30964 12.85 3V13.7254L8.63552 11.384C7.80496 10.9226 6.79504 10.9226 5.96448 11.384L1.75 13.7254V3ZM5.53561 9.72082L7.3002 8.83853L9.06479 9.72082L9.73561 10.0562L10.4064 8.71459L9.73561 8.37918L7.63561 7.32918H6.96479L4.86479 8.37918L4.19396 8.71459L4.86479 10.0562L5.53561 9.72082Z" fill="#5E6366" fill-opacity="0.15"/>
</svg>
