<svg width="105" height="30" viewBox="0 0 105 30" fill="none" xmlns="http://www.w3.org/2000/svg">
<path d="M0 15C0 6.71573 6.71573 0 15 0H90C98.2843 0 105 6.71573 105 15C105 23.2843 98.2843 30 90 30H15C6.71573 30 0 23.2843 0 15Z" fill="#10C18A"/>
<path d="M77 15C77 7.8203 82.8203 2 90 2V2C97.1797 2 103 7.8203 103 15V15C103 22.1797 97.1797 28 90 28V28C82.8203 28 77 22.1797 77 15V15Z" fill="white"/>
<path d="M87.865 14.7222C88.1593 14.6845 88.4194 14.6913 88.6403 14.7031C88.822 14.7199 88.9814 14.7195 89.1384 14.6994C89.2954 14.6792 89.4226 14.5827 89.4834 14.4345C89.5271 14.3086 89.5068 14.1507 89.3935 14.0449C89.0486 13.688 88.4765 13.5809 87.8442 13.7823C87.0575 14.0235 86.4194 14.6468 86.3017 15.2836C86.2896 15.3453 86.3168 15.402 86.3808 15.4339C86.4029 15.4512 86.4421 15.4461 86.4618 15.4436C86.501 15.4386 86.5206 15.4361 86.5377 15.4138C86.5599 15.431 87.2201 14.825 87.865 14.7222ZM87.4511 14.2939C87.5075 14.2667 87.5809 14.2171 87.6372 14.1899C87.6201 14.2121 87.6226 14.2318 87.6081 14.2738C87.579 14.3578 87.5669 14.4195 87.5353 14.4837C87.4789 14.511 87.4201 14.5185 87.3638 14.5458C87.3612 14.5261 87.3783 14.5038 87.3783 14.5038C87.41 14.4396 87.4195 14.3582 87.4511 14.2939ZM87.8271 14.4262C87.8074 14.4288 87.8074 14.4288 87.7878 14.4313C87.8024 14.3893 87.8169 14.3473 87.8144 14.3276C87.8435 14.2436 87.8556 14.1819 87.8847 14.098C87.9043 14.0954 87.9239 14.0929 87.941 14.0707C87.9803 14.0657 88.017 14.0409 88.0562 14.0359C88.0271 14.1198 87.998 14.2038 87.991 14.3049C87.9764 14.3469 87.9815 14.3864 87.9619 14.3889C87.9055 14.4162 87.8663 14.4212 87.8271 14.4262ZM88.3619 14.3978C88.303 14.4053 88.2416 14.3932 88.1631 14.4032C88.1606 14.3835 88.1777 14.3612 88.1752 14.3415C88.1992 14.2181 88.2258 14.1144 88.272 14.0082C88.3113 14.0032 88.3701 13.9956 88.4094 13.9906C88.4119 14.0103 88.3948 14.0326 88.3973 14.0523C88.3733 14.1757 88.3492 14.2991 88.3619 14.3978ZM88.5631 14.4121C88.5505 14.3134 88.5575 14.2123 88.584 14.1086C88.5986 14.0666 88.5961 14.0469 88.6132 14.0246C88.6746 14.0368 88.736 14.049 88.7777 14.0637C88.7803 14.0834 88.7606 14.086 88.7632 14.1057C88.7366 14.2094 88.7321 14.3303 88.7448 14.4289C88.7055 14.434 88.6834 14.4167 88.6441 14.4218C88.6245 14.4243 88.6024 14.4071 88.5631 14.4121ZM89.2131 14.3488C89.2157 14.3686 89.1815 14.4131 89.1226 14.4206C89.0834 14.4256 89.0245 14.4332 88.9827 14.4185C88.9505 14.3223 88.9575 14.2212 88.9866 14.1372L88.984 14.1175C89.0701 14.1666 89.1366 14.2183 89.203 14.2699C89.2081 14.3094 89.2106 14.3291 89.2131 14.3488ZM87.1771 14.4895C87.165 14.5512 87.1334 14.6155 87.1213 14.6772C87.0087 14.7317 86.9156 14.7838 86.8251 14.8555C86.9277 14.722 87.0498 14.586 87.1771 14.4895Z" fill="#1C1C1C"/>
<path d="M88.0802 15.1559C87.0207 15.2917 86.968 16.2812 86.9706 16.301L86.9636 16.4021L87.1648 16.4164L87.1718 16.3153C87.1718 16.3153 87.1718 16.3153 87.1693 16.2955C87.2111 16.3102 87.7857 16.4371 88.3547 16.3642C88.5902 16.334 88.8402 16.2618 89.0237 16.138L89.1168 16.086L89.013 15.8987L88.9199 15.9508C88.8269 16.0028 88.7535 16.0523 88.6358 16.0674C88.7408 15.9537 88.7795 15.7883 88.7592 15.6304C88.7415 15.4923 88.6871 15.379 88.596 15.2904C88.8339 15.2799 89.0719 15.2695 89.0719 15.2695L89.17 15.2569L89.1643 15.057L89.0662 15.0696C89.0492 15.0919 88.3745 15.1182 88.0802 15.1559ZM87.8054 15.8129C87.882 15.9434 88.032 16.0245 88.1889 16.0044C88.4048 15.9767 88.5586 15.7765 88.5308 15.5594C88.5282 15.5397 88.5257 15.52 88.5232 15.5002C88.5478 15.5372 88.5751 15.5939 88.5826 15.6531C88.6105 15.8701 88.4566 16.0703 88.2408 16.098C88.0446 16.1232 87.87 16.0052 87.8054 15.8129ZM87.2029 16.0907C87.2611 15.9228 87.3681 15.6684 87.6447 15.4925C87.6156 15.5765 87.589 15.6802 87.6016 15.7788C87.6219 15.9367 87.6984 16.0673 87.8092 16.1533C87.4902 16.1541 87.2225 16.0882 87.2029 16.0907Z" fill="#1C1C1C"/>
<path d="M91.275 21.5653C91.3363 21.5775 91.3977 21.5897 91.3977 21.5897C91.4174 21.5872 91.4174 21.5872 91.437 21.5847C91.4566 21.5822 91.4933 21.5574 91.4908 21.5377C91.5053 21.4957 91.4807 21.4587 91.4389 21.444C91.4389 21.444 91.3971 21.4293 91.3136 21.3999C91.2718 21.3852 91.2351 21.41 91.2205 21.452C91.2085 21.5137 91.2332 21.5506 91.275 21.5653Z" fill="#1C1C1C"/>
<path d="M89.8869 21.7834C89.9065 21.7809 89.9065 21.7809 89.9261 21.7784C89.9261 21.7784 89.9799 21.7314 90.0951 21.6965C90.1318 21.6718 90.1464 21.6298 90.1217 21.5928C90.097 21.5559 90.0553 21.5412 90.0185 21.566C89.9059 21.6205 89.8325 21.67 89.8325 21.67C89.7958 21.6948 89.7812 21.7368 89.8059 21.7737C89.828 21.7909 89.8476 21.7884 89.8869 21.7834Z" fill="#1C1C1C"/>
<path d="M90.3401 21.5849C90.4161 21.5551 90.4749 21.5476 90.5338 21.54C90.573 21.535 90.6072 21.4905 90.5825 21.4535C90.5775 21.4141 90.5332 21.3796 90.4965 21.4044C90.418 21.4145 90.3616 21.4417 90.3028 21.4493C90.2635 21.4543 90.249 21.4963 90.254 21.5358C90.2591 21.5752 90.3009 21.5899 90.3401 21.5849Z" fill="#1C1C1C"/>
<path d="M90.8083 21.5048C90.8672 21.4973 90.9286 21.5094 90.99 21.5216L91.0096 21.5191C91.0488 21.5141 91.0659 21.4918 91.0805 21.4499C91.0754 21.4104 91.0508 21.3734 91.009 21.3587C90.9476 21.3466 90.8691 21.3566 90.8077 21.3444C90.7685 21.3495 90.7318 21.3742 90.7368 21.4137C90.7444 21.4729 90.7666 21.4901 90.8083 21.5048Z" fill="#1C1C1C"/>
<path d="M87.8964 16.5232C87.6756 16.5114 87.5135 16.492 87.5135 16.492C87.4718 16.4773 87.435 16.5021 87.4205 16.5441C87.4059 16.5861 87.4306 16.623 87.4724 16.6377C87.4724 16.6377 87.6565 16.6743 87.8774 16.6861C87.8774 16.6861 87.8774 16.6861 87.8971 16.6835C87.9363 16.6785 87.9534 16.6563 87.9679 16.6143C87.98 16.5526 87.9382 16.5379 87.8964 16.5232Z" fill="#1C1C1C"/>
<path d="M88.3723 16.5023C88.3135 16.5098 88.2546 16.5174 88.1761 16.5274C88.1369 16.5325 88.1002 16.5572 88.1078 16.6164C88.1128 16.6559 88.1375 16.6928 88.1964 16.6853C88.2356 16.6803 88.2749 16.6752 88.3337 16.6677C88.3533 16.6652 88.373 16.6627 88.4122 16.6576C88.4514 16.6526 88.4856 16.6081 88.4806 16.5686C88.4755 16.5292 88.4116 16.4973 88.3723 16.5023Z" fill="#1C1C1C"/>
<path d="M88.6812 16.4226L88.6616 16.4251C88.6249 16.4499 88.6103 16.4919 88.6154 16.5313C88.6204 16.5708 88.6622 16.5855 88.7014 16.5805L88.7211 16.578L88.7407 16.5754C88.7774 16.5507 88.792 16.5087 88.7869 16.4692C88.7622 16.4323 88.7179 16.3979 88.6812 16.4226Z" fill="#1C1C1C"/>
<path d="M91.3421 16.0213L91.3225 16.0239C91.2832 16.0289 91.2465 16.0537 91.232 16.0956C91.237 16.1351 91.2617 16.172 91.3035 16.1867L91.3231 16.1842L91.3427 16.1817C91.3819 16.1767 91.399 16.1544 91.4136 16.1125C91.406 16.0533 91.3813 16.0163 91.3421 16.0213Z" fill="#1C1C1C"/>
<path d="M91.8181 16.0004C91.7592 16.008 91.7003 16.0155 91.6219 16.0256C91.5826 16.0306 91.5484 16.0751 91.5535 16.1145C91.5586 16.154 91.6029 16.1884 91.6421 16.1834C91.6617 16.1809 91.701 16.1759 91.7206 16.1734C91.7598 16.1683 91.7991 16.1633 91.8579 16.1557C91.8972 16.1507 91.9313 16.1062 91.9263 16.0668C91.8795 16.0126 91.8548 15.9756 91.8181 16.0004Z" fill="#1C1C1C"/>
<path d="M92.4503 15.799C92.4503 15.799 92.3009 15.8783 92.0876 15.9257C92.0484 15.9308 92.0338 15.9728 92.0389 16.0122C92.0439 16.0517 92.0857 16.0664 92.1249 16.0614C92.1249 16.0614 92.1249 16.0614 92.1446 16.0588C92.3749 15.9892 92.5243 15.9099 92.5243 15.9099C92.561 15.8851 92.5756 15.8431 92.5509 15.8062C92.5288 15.789 92.487 15.7743 92.4503 15.799Z" fill="#1C1C1C"/>
<path d="M86.9779 11.8476L86.9976 11.8451C87.0539 11.8178 87.1102 11.7905 87.1666 11.7632C87.2033 11.7385 87.2178 11.6965 87.1932 11.6595C87.1685 11.6226 87.1267 11.6079 87.09 11.6327C87.0337 11.6599 86.9577 11.6897 86.921 11.7145C86.8843 11.7392 86.8697 11.7812 86.8944 11.8182C86.9166 11.8354 86.9387 11.8526 86.9779 11.8476Z" fill="#1C1C1C"/>
<path d="M87.8647 11.4531C87.8647 11.4531 87.8843 11.4506 87.8647 11.4531C87.9406 11.4233 87.9995 11.4158 88.0558 11.3885C88.0951 11.3835 88.1096 11.3415 88.1046 11.3021C88.0995 11.2626 88.0577 11.2479 88.0185 11.2529C87.9622 11.2802 87.8837 11.2903 87.8273 11.3175C87.7881 11.3226 87.7735 11.3645 87.7786 11.404C87.8033 11.441 87.8254 11.4582 87.8647 11.4531Z" fill="#1C1C1C"/>
<path d="M87.4091 11.6319L87.4287 11.6294C87.4851 11.6021 87.5414 11.5748 87.5977 11.5475C87.6345 11.5228 87.649 11.4808 87.644 11.4413C87.6389 11.4019 87.5775 11.3897 87.5383 11.3947C87.4819 11.422 87.406 11.4518 87.3497 11.479C87.3129 11.5038 87.2984 11.5458 87.3034 11.5853C87.3477 11.6197 87.3895 11.6344 87.4091 11.6319Z" fill="#1C1C1C"/>
<path d="M90.6262 11.059C90.6876 11.0712 90.7464 11.0637 90.8274 11.0733L90.8471 11.0708C90.8863 11.0658 90.9034 11.0435 90.9179 11.0016C90.9129 10.9621 90.8882 10.9251 90.849 10.9302C90.7876 10.918 90.7287 10.9255 90.6477 10.9159C90.6085 10.9209 90.5718 10.9457 90.5768 10.9851C90.5597 11.0074 90.5844 11.0443 90.6262 11.059Z" fill="#1C1C1C"/>
<path d="M91.1096 11.0973C91.171 11.1095 91.2324 11.1217 91.2938 11.1339L91.3134 11.1314C91.3527 11.1263 91.3698 11.1041 91.3843 11.0621C91.3989 11.0201 91.3546 10.9857 91.3128 10.971C91.2514 10.9588 91.19 10.9466 91.109 10.9369C91.0673 10.9222 91.0331 10.9667 91.0185 11.0087C91.0457 11.0654 91.0704 11.1023 91.1096 11.0973Z" fill="#1C1C1C"/>
<path d="M89.9661 11.0434C90.1059 11.0455 90.2237 11.0304 90.3439 11.035C90.3439 11.035 90.3439 11.035 90.3635 11.0325C90.4028 11.0275 90.4199 11.0052 90.4344 10.9633C90.4294 10.9238 90.4047 10.8869 90.3654 10.8919C90.2452 10.8872 90.1053 10.8851 89.968 10.9027C89.9287 10.9078 89.892 10.9325 89.8971 10.972C89.8825 11.014 89.9268 11.0484 89.9661 11.0434Z" fill="#1C1C1C"/>
<path d="M88.3229 11.2941C88.3425 11.2916 88.3425 11.2916 88.3229 11.2941C88.4577 11.2568 88.5729 11.2219 88.7102 11.2043C88.7495 11.1993 88.7836 11.1548 88.759 11.1179C88.7539 11.0784 88.7096 11.044 88.6729 11.0687C88.5381 11.1061 88.4204 11.1212 88.2855 11.1585C88.2463 11.1635 88.2317 11.2055 88.2368 11.245C88.2615 11.2819 88.3032 11.2966 88.3229 11.2941Z" fill="#1C1C1C"/>
<path d="M89.002 11.1469C89.0609 11.1393 89.1394 11.1293 89.1982 11.1217C89.2375 11.1167 89.2717 11.0722 89.2666 11.0327C89.2615 10.9933 89.2198 10.9786 89.178 10.9639C89.1191 10.9714 89.0407 10.9815 88.9818 10.989C88.9426 10.9941 88.9084 11.0385 88.9134 11.078C88.9185 11.1175 88.9628 11.1519 89.002 11.1469Z" fill="#1C1C1C"/>
<path d="M89.4928 11.084C89.5516 11.0764 89.6105 11.0689 89.6693 11.0613C89.7086 11.0563 89.7428 11.0118 89.7377 10.9724C89.7326 10.9329 89.708 10.8959 89.6491 10.9035C89.5902 10.911 89.5314 10.9186 89.4725 10.9261L89.4529 10.9286C89.4137 10.9337 89.3991 10.9757 89.4042 11.0151C89.4092 11.0546 89.451 11.0693 89.4928 11.084Z" fill="#1C1C1C"/>
<path d="M91.5984 11.1751C91.6597 11.1873 91.7211 11.1995 91.7825 11.2116L91.8021 11.2091C91.8414 11.2041 91.8585 11.1819 91.8756 11.1596C91.8901 11.1176 91.8654 11.0807 91.8237 11.066C91.7623 11.0538 91.7009 11.0416 91.6395 11.0294C91.5977 11.0147 91.561 11.0395 91.5465 11.0815C91.5344 11.1432 91.5591 11.1801 91.5984 11.1751Z" fill="#1C1C1C"/>
<path d="M87.4478 12.0882L87.4674 12.0857C87.5237 12.0584 87.58 12.0312 87.6364 12.0039C87.6731 11.9791 87.6876 11.9371 87.663 11.9002C87.6383 11.8632 87.5965 11.8485 87.5598 11.8733C87.5035 11.9006 87.4275 11.9304 87.3712 11.9576C87.3345 11.9824 87.3199 12.0244 87.3446 12.0613C87.3864 12.076 87.4281 12.0907 87.4478 12.0882Z" fill="#1C1C1C"/>
<path d="M88.7601 11.4386C88.6816 11.4487 88.6057 11.4784 88.5297 11.5082C88.4905 11.5133 88.4759 11.5552 88.481 11.5947C88.4861 11.6342 88.5278 11.6489 88.5671 11.6438C88.5671 11.6438 88.5671 11.6438 88.5867 11.6413C88.6626 11.6115 88.7411 11.6015 88.8171 11.5717C88.8563 11.5666 88.8905 11.5222 88.8658 11.4852C88.8411 11.4483 88.7994 11.4336 88.7601 11.4386Z" fill="#1C1C1C"/>
<path d="M87.888 11.7911C87.8931 11.8305 87.9349 11.8452 87.9741 11.8402L87.9937 11.8377C88.0697 11.8079 88.1456 11.7781 88.2216 11.7483C88.2608 11.7433 88.2754 11.7013 88.2703 11.6618C88.2653 11.6224 88.2235 11.6077 88.1843 11.6127C88.1083 11.6425 88.0324 11.6723 87.9564 11.7021C87.8975 11.7096 87.8634 11.7541 87.888 11.7911Z" fill="#1C1C1C"/>
<path d="M89.599 11.291L89.4813 11.3061C89.344 11.3237 89.2262 11.3388 89.1085 11.3539C89.0693 11.3589 89.0351 11.4034 89.0401 11.4428C89.0452 11.4823 89.0895 11.5167 89.1287 11.5117C89.2465 11.4966 89.3642 11.4815 89.5015 11.4639L89.6193 11.4488C89.6585 11.4438 89.6927 11.3993 89.6876 11.3598C89.6826 11.3204 89.6579 11.2834 89.599 11.291Z" fill="#1C1C1C"/>
<path d="M89.975 11.4233C90.0535 11.4132 90.1345 11.4229 90.2155 11.4326C90.2155 11.4326 90.2155 11.4326 90.2352 11.4301C90.2744 11.425 90.2915 11.4028 90.3061 11.3608C90.301 11.3213 90.2763 11.2844 90.2371 11.2894C90.1561 11.2798 90.0776 11.2898 89.9966 11.2802C89.9573 11.2852 89.9206 11.3099 89.9257 11.3494C89.9111 11.3914 89.9358 11.4283 89.975 11.4233Z" fill="#1C1C1C"/>
<path d="M90.5958 11.444C90.6768 11.4537 90.7578 11.4633 90.8388 11.473L90.8584 11.4705C90.8976 11.4654 90.9147 11.4432 90.9293 11.4012C90.9439 11.3592 90.8996 11.3248 90.8578 11.3101C90.7768 11.3004 90.6958 11.2908 90.6148 11.2811C90.5755 11.2861 90.5388 11.3109 90.5439 11.3504C90.5122 11.4146 90.5565 11.449 90.5958 11.444Z" fill="#1C1C1C"/>
<path d="M91.4128 11.4395C91.3514 11.4273 91.29 11.4151 91.2286 11.403C91.1868 11.3883 91.1501 11.413 91.1356 11.455C91.121 11.497 91.1457 11.5339 91.1875 11.5486C91.2489 11.5608 91.3102 11.573 91.3716 11.5852L91.3913 11.5827C91.4305 11.5776 91.4476 11.5554 91.4647 11.5331C91.4792 11.4912 91.452 11.4345 91.4128 11.4395Z" fill="#1C1C1C"/>
<path d="M92.4404 15.0983C92.3525 15.1898 92.1543 15.3556 91.86 15.3934C91.5486 15.4533 91.2929 15.3257 91.1651 15.2618L91.0347 15.1783L90.8885 15.4377L91.0189 15.5212C91.1689 15.6023 91.4859 15.7421 91.8783 15.6918C91.898 15.6893 91.898 15.6893 91.9176 15.6868C92.2878 15.6193 92.5423 15.4262 92.667 15.31L92.7721 15.1962L92.5651 14.9821L92.4404 15.0983Z" fill="#1C1C1C"/>
<path d="M89.3485 27.8491C89.8099 27.8702 90.2466 27.8543 90.7004 27.8162L92.2504 27.6175C92.6991 27.5399 93.1428 27.4229 93.5839 27.2861L89.3485 27.8491Z" fill="#1C1C1C"/>
<path d="M99.9908 22.815L99.8288 22.7956L99.5661 22.7691L99.4041 22.7498L99.1415 22.7233L98.9795 22.704L98.7168 22.6775L98.5548 22.6581L98.2921 22.6316L98.1301 22.6123L97.8674 22.5858L97.7054 22.5665L97.5485 22.5866L97.3864 22.5672L97.1238 22.5407L96.9618 22.5214L96.6991 22.4949L96.5814 22.51L96.3187 22.4835L96.1567 22.4642L95.8941 22.4377L95.732 22.4183L95.4694 22.3918L95.3074 22.3725L94.4802 22.298L94.048 20.9495C94.1094 20.9617 94.1487 20.9567 94.2075 20.9491L94.2271 20.9466C94.3056 20.9365 94.379 20.887 94.3885 20.8056C94.4177 20.7216 94.3854 20.6255 94.2993 20.5763C94.1493 20.4953 94.0139 20.3723 93.8589 20.2517C94.1437 19.6737 94.3261 19.2292 94.4496 18.1704C94.4781 17.9261 94.4743 17.5856 94.463 17.186C94.4826 17.1835 94.5219 17.1784 94.5415 17.1759C94.6003 17.1684 94.6763 17.1386 94.7301 17.0916C94.889 16.9308 94.9289 16.4644 94.9352 16.2029C94.9441 15.9611 94.9726 15.7167 95.0037 15.4921C95.0607 15.0035 95.1323 14.4729 94.983 13.9304C94.9779 13.891 94.9703 13.8318 94.9627 13.7726C94.9102 13.5186 94.8672 13.1831 94.6337 13.0727C94.5502 13.0433 94.4077 13.0214 94.2413 13.123C94.2046 13.1478 94.1875 13.17 94.1508 13.1948C94.1502 13.0344 94.1324 12.8963 94.142 12.8148C94.1085 12.398 94.0092 11.4681 93.8751 11.044C93.517 9.80636 92.6519 8.81418 91.4425 8.24721C91.3216 8.08221 91.1444 7.94448 90.9476 7.80926C90.6425 7.60769 90.2445 7.45817 89.7926 7.35565C89.7508 7.34095 89.7116 7.34598 89.6698 7.33128C89.628 7.31658 89.5888 7.32161 89.547 7.30691C89.466 7.29724 89.385 7.28757 89.304 7.27789C89.2844 7.28041 89.2844 7.28041 89.2647 7.28292C89.1641 7.27577 89.0831 7.2661 88.9825 7.25894C88.8818 7.25179 88.8033 7.26185 88.7027 7.25469C88.7027 7.25469 88.7027 7.25469 88.6831 7.25721C88.6046 7.26727 88.504 7.26011 88.4255 7.27018C88.4059 7.27269 88.4059 7.27269 88.3863 7.27521C88.3078 7.28527 88.2293 7.29533 88.1508 7.30539C88.1312 7.3079 88.092 7.31293 88.0723 7.31545C88.0135 7.32299 87.935 7.33306 87.8787 7.36033C87.8394 7.36536 87.8002 7.37039 87.7635 7.39516C87.7046 7.4027 87.6483 7.42998 87.5894 7.43752C87.5306 7.44507 87.4938 7.46983 87.435 7.47738C87.4154 7.47989 87.3761 7.48492 87.359 7.50717C87.3198 7.5122 87.2635 7.53948 87.2242 7.54451L87.2046 7.54702C87.109 7.57933 87.0134 7.61164 86.9204 7.66368C86.9647 7.69811 86.9647 7.69811 86.9647 7.69811C86.8691 7.73042 86.7761 7.78246 86.683 7.8345C85.8824 8.27809 84.9899 9.09446 84.6081 10.6275C84.6081 10.6275 84.6081 10.6275 84.6106 10.6473C84.5429 10.8966 84.4973 11.1632 84.4542 11.4495C84.4567 11.4692 84.4567 11.4692 84.4396 11.4915C84.4181 11.6346 84.4136 11.7555 84.3921 11.8987C84.3946 11.9184 84.3801 11.9604 84.3826 11.9801C84.3807 12.1208 84.3788 12.2614 84.3794 12.4218C84.3895 12.5007 84.3756 12.703 84.5623 12.7593C84.5844 12.7765 84.6237 12.7715 84.6433 12.769L84.6629 12.7665L84.6825 12.764C84.7021 12.7615 84.7218 12.7589 84.7389 12.7367C84.7389 12.7367 84.7389 12.7367 84.7585 12.7342C84.7781 12.7317 84.7952 12.7094 84.7952 12.7094C84.8312 13.146 84.902 13.6985 84.9818 14.0092C84.9919 14.0881 85.0292 14.2237 85.0665 14.3593C85.0444 14.3421 85.0222 14.3249 84.983 14.3299C84.7963 14.2736 84.664 14.3307 84.5906 14.3802C84.3925 14.546 84.4133 14.8642 84.4487 15.1405C84.4563 15.1997 84.4639 15.2589 84.469 15.2983C84.4613 15.8609 84.6619 16.3366 84.8428 16.8148C84.9295 17.0243 85.0187 17.2535 85.0883 17.4852C85.1605 17.7367 85.3193 18.1977 85.511 18.2935C85.575 18.3254 85.656 18.335 85.7148 18.3275C85.7344 18.325 85.7541 18.3225 85.7737 18.32C85.8635 18.7096 85.9458 19.04 86.035 19.2692C86.4216 20.2625 86.6905 20.6492 87.1784 21.1884C87.0759 21.3218 86.993 21.4528 86.8854 21.5468C86.8341 21.6136 86.8075 21.7173 86.8568 21.7911C86.9062 21.865 86.9923 21.9142 87.0682 21.8844C87.1271 21.8768 87.1638 21.8521 87.2227 21.8445L87.1643 23.2559L86.4218 23.5316L86.2699 23.5912L86.0003 23.6659L85.8484 23.7255L85.6009 23.8173L85.449 23.8769L85.2016 23.9688L85.0497 24.0284L84.8022 24.1203L84.6503 24.1799L84.4028 24.2718L84.3047 24.2844L84.0572 24.3762L83.9224 24.4136L83.6749 24.5055L83.5426 24.5625L83.2952 24.6544L83.1604 24.6918L82.9129 24.7837L82.761 24.8433L82.5306 24.9129L82.3787 24.9725L82.1312 25.0644L81.9793 25.124L81.8274 25.1836L82.0242 25.3188L82.135 25.4048C82.1571 25.4221 82.1793 25.4393 82.1989 25.4368L82.221 25.454L82.4514 25.3843L82.4843 25.6408C82.5482 25.6728 82.5925 25.7072 82.6564 25.7391L82.6033 25.3248L82.6793 25.295L82.8312 25.2354L82.9172 25.9062L83.0893 26.0045L82.9831 25.1758L83.2135 25.1061L83.3501 26.1716C83.414 26.2036 83.4583 26.238 83.5222 26.2699L83.3679 25.0663L83.5932 24.9572L83.7779 26.3976C83.8418 26.4295 83.8836 26.4442 83.9475 26.4761L83.7451 24.8976L83.9926 24.8057L84.2228 26.6013C84.2867 26.6332 84.3285 26.6479 84.3924 26.6798L84.147 24.7658L84.3553 24.679L84.6285 26.81C84.6899 26.8222 84.7342 26.8566 84.7955 26.8688L84.5097 24.6391L84.7572 24.5472L85.0683 26.9742C85.1297 26.9864 85.174 27.0208 85.2354 27.033L84.9091 24.4877L85.1566 24.3958L85.5082 27.1385C85.5696 27.1506 85.6139 27.1851 85.6753 27.1973L85.311 24.3559L85.5585 24.264L85.9455 27.2829C86.0069 27.2951 86.0487 27.3098 86.11 27.322L85.7104 24.2044L85.9579 24.1125L86.3778 27.388C86.4392 27.4002 86.4809 27.4149 86.5423 27.4271L86.1123 24.0727L86.3598 23.9808L86.7569 27.0787L86.81 27.493L86.9746 27.5321L86.9215 27.1177L86.5117 23.9212L86.7592 23.8293L87.2398 27.5783C87.3011 27.5905 87.3429 27.6052 87.4018 27.5977L86.9136 23.7895L87.1611 23.6976L87.6695 27.6636C87.7309 27.6758 87.7727 27.6905 87.8315 27.683L87.313 23.638L87.3326 23.6355C87.3547 23.6527 87.3598 23.6921 87.3845 23.7291L87.387 23.7488C87.4389 23.8425 87.5351 23.9705 87.6313 24.0986L88.0967 27.7292C88.1581 27.7414 88.1973 27.7363 88.2587 27.7485L87.8135 24.2758C87.8578 24.3102 87.9047 24.3644 87.949 24.3988C87.9933 24.4332 88.0376 24.4677 88.0819 24.5021C88.0819 24.5021 88.0819 24.5021 88.104 24.5193L88.5188 27.7553C88.5802 27.7675 88.6195 27.7624 88.6809 27.7746L88.2812 24.657C88.3034 24.6743 88.3255 24.6915 88.3477 24.7087C88.3698 24.7259 88.3698 24.7259 88.392 24.7431C88.4141 24.7603 88.4363 24.7776 88.4559 24.775C88.478 24.7923 88.5002 24.8095 88.5198 24.807L88.5419 24.8242L88.9239 27.8036C88.9828 27.7961 89.0245 27.8108 89.0859 27.823L88.7116 24.9027C88.7116 24.9027 88.7312 24.9002 88.7337 24.9199C88.8172 24.9493 88.8812 24.9812 88.9647 25.0107L89.2758 27.4376L89.3264 27.8323L89.346 27.8298L89.3208 27.6324L89.5758 27.5997L89.6011 27.7971L89.7385 27.7794L89.7132 27.5821L89.9682 27.5494L89.9935 27.7468L90.1505 27.7266L90.1252 27.5293L90.3803 27.4966L90.4055 27.6939L90.5625 27.6738L90.5372 27.4765L90.7923 27.4438L90.8176 27.6411L90.9745 27.621L90.9492 27.4237L91.2043 27.391L91.2296 27.5883L91.3866 27.5682L91.3613 27.3709L91.6163 27.3382L91.6416 27.5355L91.7986 27.5153L91.7733 27.318L92.0284 27.2853L92.0537 27.4827L92.2106 27.4625L92.1853 27.2652L92.4404 27.2325L92.4657 27.4298L92.6227 27.4097L92.5974 27.2124L92.8524 27.1797L92.8777 27.377L93.0347 27.3569L93.0094 27.1596L93.2645 27.1269L93.2897 27.3242L93.4467 27.3041L93.4214 27.1068L93.6765 27.0741L93.7018 27.2714L93.8391 27.2538L93.7885 26.8591L93.4749 24.4124C93.4749 24.4124 93.4945 24.4099 93.492 24.3902C93.5654 24.3406 93.6192 24.2936 93.673 24.2466C93.673 24.2466 93.6926 24.2441 93.6901 24.2244L94.0644 27.1447L94.2189 27.1048L93.8369 24.1253C93.8736 24.1006 93.9078 24.0561 93.9445 24.0313C93.9616 24.0091 93.9812 24.0066 93.9787 23.9868C93.9958 23.9646 94.0325 23.9398 94.0496 23.9176C94.0496 23.9176 94.0496 23.9176 94.0692 23.9151L94.4714 27.0524C94.5277 27.0251 94.567 27.0201 94.6233 26.9928L94.206 23.7371C94.2914 23.6258 94.3572 23.5171 94.4231 23.4084L94.8683 26.8812C94.9246 26.8539 94.9638 26.8489 95.0202 26.8216L94.5522 23.1712C94.6276 22.9811 94.6858 22.8132 94.7124 22.7095L94.7516 22.7044L95.2676 26.7297C95.324 26.7024 95.3607 26.6776 95.4196 26.6701L94.9137 22.7238L95.1763 22.7503L95.6114 26.1441L95.6645 26.5585L95.8139 26.4792L95.7608 26.0648L95.3358 22.7499L95.5985 22.7764L96.0588 26.3675C96.1152 26.3403 96.1519 26.3155 96.2082 26.2882L95.7579 22.776L96.0206 22.8025L96.4506 26.1569C96.5069 26.1296 96.5437 26.1048 96.6 26.0775L96.1826 22.8218L96.4453 22.8483L96.7842 25.4924L96.8399 25.9265C96.8962 25.8992 96.9329 25.8744 96.9892 25.8471L96.9336 25.413L96.6048 22.8479L96.8674 22.8744L97.2291 25.6961C97.2855 25.6688 97.3222 25.644 97.376 25.597L97.0294 22.8938L97.2921 22.9203L97.6159 25.4459C97.6722 25.4186 97.7064 25.3741 97.7627 25.3469L97.4516 22.9199L97.7142 22.9464L98.0001 25.1761C98.0539 25.129 98.0906 25.1043 98.1469 25.077L97.8763 22.9657L98.1389 22.9922L98.3817 24.8865C98.4356 24.8394 98.4723 24.8147 98.5261 24.7677L98.2984 22.9918L98.5611 23.0183L98.7609 24.5771C98.8147 24.5301 98.8514 24.5054 98.9052 24.4583L98.7231 23.0377L98.9857 23.0642L99.1375 24.2481C99.1913 24.2011 99.2255 24.1566 99.2793 24.1095L99.1452 23.0638L99.4079 23.0903L99.5091 23.8795C99.5629 23.8325 99.5971 23.788 99.6509 23.741L99.5674 23.0899L99.6876 23.0945L99.8275 23.0966L99.8781 23.4913C99.9319 23.4443 99.9661 23.3998 100.02 23.3528L99.9921 23.1357L100.193 23.15C100.193 23.15 100.21 23.1278 100.228 23.1055L100.245 23.0833L100.347 22.9498L100.486 22.7916L99.9908 22.815ZM94.189 22.5158L94.1694 22.5184L94.182 22.617C94.1846 22.6367 94.1675 22.659 94.1675 22.659C94.17 22.6787 94.1504 22.6812 94.1529 22.701C94.1554 22.7207 94.1383 22.743 94.1383 22.743C94.1212 22.7652 94.1238 22.7849 94.1092 22.8269C94.1117 22.8466 94.0921 22.8492 94.0947 22.8689C94.0801 22.9109 94.063 22.9331 94.0484 22.9751L94.051 22.9948C94.0364 23.0368 94.0022 23.0813 93.9902 23.143C93.9756 23.185 93.9585 23.2072 93.9244 23.2517L93.9073 23.274C93.8927 23.3159 93.8585 23.3604 93.8414 23.3827C93.8243 23.4049 93.8073 23.4272 93.7902 23.4494C93.7731 23.4717 93.7389 23.5162 93.7218 23.5384C93.7047 23.5607 93.6876 23.5829 93.6534 23.6274C93.6363 23.6496 93.6193 23.6719 93.6022 23.6941C93.5655 23.7189 93.5509 23.7609 93.5142 23.7856C93.48 23.8301 93.4237 23.8574 93.3895 23.9019C93.3724 23.9242 93.3528 23.9267 93.3357 23.9489C93.2281 24.0429 93.1009 24.1395 92.9515 24.2188L92.9319 24.2213C92.8584 24.2708 92.7825 24.3006 92.7065 24.3304C92.6698 24.3552 92.6306 24.3602 92.5939 24.385C92.5179 24.4148 92.4616 24.442 92.3856 24.4718C92.3856 24.4718 92.3856 24.4718 92.366 24.4743C92.2704 24.5067 92.1552 24.5415 92.0375 24.5566C91.9223 24.5914 91.8046 24.6065 91.6673 24.6241L91.5299 24.6417L91.54 24.7206L91.4894 24.9477L91.4508 25.1131L91.4362 25.1551L91.3083 25.713L91.3108 25.7327L91.3133 25.7525L91.2336 26.0635L91.1545 25.9132L91.1026 25.8196L91.1001 25.7999L91.0134 25.5904L90.9836 25.514L90.9242 25.3611L90.9216 25.3414L90.6622 24.8733L90.6375 24.8363L90.635 24.8166L90.6052 24.7402L90.4679 24.7578C90.3502 24.7729 90.2128 24.7905 90.1122 24.7833C90.0926 24.7858 90.0926 24.7858 90.073 24.7884C89.9527 24.7837 89.8546 24.7963 89.754 24.7891C89.754 24.7891 89.754 24.7891 89.7343 24.7917C89.6337 24.7845 89.5527 24.7748 89.4521 24.7677C89.4325 24.7702 89.4128 24.7727 89.4103 24.753C89.3097 24.7458 89.2261 24.7164 89.1426 24.687C89.123 24.6895 89.1204 24.6698 89.1008 24.6723C89.0173 24.6429 88.9363 24.6332 88.8724 24.6013C88.8724 24.6013 88.8723 24.6013 88.8527 24.6038C88.7053 24.5425 88.5774 24.4787 88.4471 24.3951C88.4249 24.3779 88.4028 24.3607 88.3831 24.3632C88.3414 24.3485 88.3167 24.3115 88.2945 24.2943C88.2724 24.2771 88.2502 24.2599 88.2281 24.2427C88.1838 24.2082 88.1395 24.1738 88.1148 24.1369C88.1123 24.1171 88.0927 24.1197 88.0901 24.0999C88.0876 24.0802 88.068 24.0827 88.068 24.0827C88.0433 24.0458 88.0015 24.0311 87.9769 23.9941C87.9547 23.9769 87.9326 23.9597 87.93 23.9399C87.7895 23.7774 87.6883 23.6099 87.6143 23.4991L87.5965 23.361L87.5377 23.3685L87.622 21.6931C87.7157 21.8014 87.8068 21.89 87.8809 22.0008C87.8809 22.0008 87.8834 22.0206 87.903 22.018C87.9473 22.0525 87.9745 22.1092 88.0188 22.1436C88.0214 22.1633 88.041 22.1608 88.0435 22.1805C88.0682 22.2175 88.1125 22.2519 88.1372 22.2889C88.1593 22.3061 88.1618 22.3258 88.184 22.343C88.2087 22.38 88.253 22.4144 88.2777 22.4514C88.2998 22.4686 88.3023 22.4883 88.3245 22.5055C88.3688 22.54 88.3935 22.5769 88.4352 22.5916C88.4574 22.6088 88.4599 22.6285 88.4795 22.626C88.5238 22.6605 88.546 22.6777 88.5903 22.7121C88.6124 22.7293 88.6124 22.7293 88.6346 22.7465C88.6789 22.781 88.701 22.7982 88.7453 22.8326C88.7675 22.8498 88.7675 22.8498 88.7896 22.8671C88.8339 22.9015 88.8757 22.9162 88.9004 22.9531C88.9225 22.9704 88.9225 22.9704 88.9447 22.9876C88.9864 23.0023 89.0307 23.0367 89.0725 23.0514C89.0921 23.0489 89.0947 23.0686 89.1143 23.0661C89.1561 23.0808 89.1978 23.0955 89.2421 23.1299C89.2617 23.1274 89.2643 23.1472 89.2839 23.1446C89.3257 23.1594 89.3674 23.1741 89.4092 23.1888C89.4288 23.1862 89.451 23.2035 89.4706 23.2009C89.5124 23.2156 89.5738 23.2278 89.613 23.2228C89.6326 23.2203 89.6548 23.2375 89.6744 23.235C89.7162 23.2497 89.775 23.2421 89.8168 23.2568C89.8364 23.2543 89.8586 23.2715 89.8782 23.269C89.9174 23.264 89.9788 23.2762 90.0377 23.2686C90.0573 23.2661 90.0769 23.2636 90.0965 23.2611C90.175 23.251 90.256 23.2607 90.3345 23.2506L90.3541 23.2481L91.3352 23.1224L91.3548 23.1198C92.6105 22.9589 93.1049 21.993 93.6113 20.9654L93.6284 20.9431C93.648 20.9406 93.6702 20.9578 93.6898 20.9553L94.189 22.5158ZM89.0374 25.4225L89.2925 25.3898L89.3203 25.6068L89.0653 25.6395L89.0374 25.4225ZM92.8432 24.7742L92.5881 24.8069C92.6077 24.8044 92.6274 24.8018 92.6445 24.7796C92.7008 24.7523 92.74 24.7473 92.7964 24.72C92.816 24.7175 92.816 24.7175 92.8331 24.6953L92.8432 24.7742ZM93.3317 25.4737L93.0767 25.5064L93.0488 25.2893L93.3039 25.2566L93.3317 25.4737ZM90.3279 25.9991L90.583 25.9664L90.6108 26.1835L90.3557 26.2162L90.3279 25.9991ZM90.1987 26.2363L89.9437 26.269L89.9159 26.052L90.1709 26.0193L90.1987 26.2363ZM90.3913 25.2489L90.4976 25.4559L90.2621 25.4861L90.2343 25.2691L90.3913 25.2489ZM90.5349 25.5915L90.5627 25.8086L90.3076 25.8413L90.2798 25.6242L90.5349 25.5915ZM90.7203 25.9488L90.8266 26.1558L90.7481 26.1659L90.7203 25.9488ZM92.0786 25.0326L92.1064 25.2497L91.8514 25.2824L91.8387 25.1837L91.8628 25.0603L92.0786 25.0326ZM92.1241 25.3878L92.152 25.6049L91.8969 25.6376L91.8691 25.4205L92.1241 25.3878ZM91.7425 25.6774L91.7032 25.6824L91.7323 25.5985L91.7425 25.6774ZM91.6431 25.991L91.6817 25.8256L91.7602 25.8155L91.788 26.0326L91.6114 26.0552L91.6431 25.991ZM91.9171 25.7954L92.1722 25.7627L92.2 25.9798L91.945 26.0125L91.9171 25.7954ZM92.3095 25.7451L92.5646 25.7124L92.5924 25.9295L92.3374 25.9621L92.3095 25.7451ZM92.2918 25.607L92.264 25.3899L92.5191 25.3572L92.5469 25.5743L92.2918 25.607ZM92.2438 25.2321L92.216 25.015L92.471 24.9823L92.4988 25.1994L92.2438 25.2321ZM90.0773 25.2892L90.1052 25.5062L89.8501 25.5389L89.8223 25.3219L90.0773 25.2892ZM90.1229 25.6444L90.1507 25.8614L89.8956 25.8941L89.8678 25.6771L90.1229 25.6444ZM89.7608 25.9314L89.5057 25.9641L89.4779 25.7471L89.733 25.7144L89.7608 25.9314ZM89.7785 26.0696L89.8063 26.2866L89.5513 26.3193L89.5234 26.1023L89.7785 26.0696ZM89.8266 26.4445L89.8544 26.6615L89.5993 26.6942L89.5715 26.4772L89.8266 26.4445ZM89.9835 26.4243L90.2386 26.3916L90.2664 26.6087L90.0114 26.6414L89.9835 26.4243ZM90.3759 26.374L90.631 26.3413L90.6588 26.5584L90.4038 26.5911L90.3759 26.374ZM90.7684 26.3237L90.8861 26.3086L90.9924 26.5156L90.7962 26.5408L90.7684 26.3237ZM91.5804 26.2798L91.5924 26.2181L91.8279 26.1879L91.8557 26.405L91.6006 26.4377L91.5804 26.2798V26.2798ZM91.9652 26.1703L92.2203 26.1376L92.2481 26.3547L91.993 26.3874L91.9652 26.1703ZM92.3576 26.12L92.6127 26.0873L92.6405 26.3044L92.3854 26.337L92.3576 26.12ZM92.75 26.0697L93.0051 26.037L93.0329 26.254L92.7778 26.2867L92.75 26.0697ZM92.7298 25.9118L92.702 25.6948L92.957 25.6621L92.9848 25.8791L92.7298 25.9118ZM92.6842 25.5567L92.6564 25.3396L92.9115 25.3069L92.9393 25.524L92.6842 25.5567ZM93.2837 25.0988L93.0286 25.1315L93.0008 24.9144L93.2558 24.8817L93.2837 25.0988ZM92.8913 25.1491L92.6362 25.1818L92.6084 24.9647L92.8634 24.932L92.8913 25.1491ZM89.6058 25.1892C89.6254 25.1867 89.6254 25.1867 89.6476 25.2039L89.4122 25.2341L89.4046 25.1749C89.483 25.1648 89.5444 25.177 89.6058 25.1892ZM89.6849 25.3395L89.7127 25.5565L89.4577 25.5892L89.4299 25.3722L89.6849 25.3395ZM89.083 25.7777L89.338 25.745L89.3659 25.962L89.1108 25.9947L89.083 25.7777ZM89.1589 26.3696L89.131 26.1526L89.3861 26.1199L89.4139 26.3369L89.1589 26.3696ZM89.1791 26.5275L89.4342 26.4948L89.462 26.7118L89.2069 26.7445L89.1791 26.5275ZM89.255 27.1194L89.2272 26.9024L89.4822 26.8697L89.5101 27.0867L89.255 27.1194ZM89.6196 26.8521L89.8746 26.8194L89.9025 27.0364L89.6474 27.0691L89.6196 26.8521ZM90.0316 26.7992L90.2867 26.7665L90.3145 26.9836L90.0594 27.0163L90.0316 26.7992ZM90.424 26.7489L90.6791 26.7162L90.7069 26.9333L90.4518 26.966L90.424 26.7489ZM90.8164 26.6986L91.0519 26.6685L91.0544 26.6882L91.0822 26.9052L90.8271 26.9379L90.7968 26.7011L90.8164 26.6986ZM91.4525 26.8377L91.4936 26.692L91.5113 26.8302L91.4525 26.8377ZM91.6208 26.5955L91.8759 26.5628L91.9037 26.7799L91.6487 26.8126L91.6208 26.5955ZM92.0133 26.5452L92.2683 26.5125L92.2961 26.7296L92.0411 26.7623L92.0133 26.5452ZM92.4057 26.4949L92.6607 26.4622L92.6886 26.6793L92.4335 26.7119L92.4057 26.4949ZM92.7981 26.4446L93.0531 26.4119L93.081 26.6289L92.8259 26.6616L92.7981 26.4446ZM93.2101 26.3918L93.4652 26.3591L93.493 26.5761L93.2379 26.6088L93.2101 26.3918ZM93.1899 26.2339L93.162 26.0169L93.4171 25.9842L93.4449 26.2012L93.1899 26.2339ZM93.1418 25.859L93.114 25.642L93.369 25.6093L93.3969 25.8263L93.1418 25.859ZM93.2356 24.7239L92.9805 24.7566L92.9679 24.6579C92.9679 24.6579 92.9679 24.6579 92.9875 24.6554C93.0635 24.6256 93.1369 24.5761 93.2128 24.5463L93.2356 24.7239V24.7239ZM93.0532 20.0341C93.0557 20.0539 93.0583 20.0736 93.0779 20.0711L93.0829 20.1105C93.1152 20.2067 93.1646 20.2806 93.1968 20.3767C93.1551 20.362 93.1133 20.3473 93.0519 20.3351L92.9779 20.2243C92.931 20.1701 92.8842 20.116 92.8545 20.0395C92.8026 19.9459 92.7703 19.8498 92.738 19.7536C92.8488 19.8397 92.9595 19.9258 93.0532 20.0341ZM92.5115 19.542C92.5165 19.5815 92.5216 19.6209 92.5488 19.6776L92.5564 19.7368C92.5741 19.8749 92.6336 20.0278 92.7101 20.1583C92.7127 20.1781 92.7348 20.1953 92.7348 20.1953C92.6931 20.1806 92.6709 20.1634 92.6291 20.1487L92.4437 19.7914C92.3944 19.7175 92.3646 19.6411 92.3545 19.5621C92.3495 19.5227 92.3444 19.4832 92.359 19.4412L92.3564 19.4215C92.4007 19.4559 92.4476 19.5101 92.5115 19.542ZM89.0754 19.9624C89.0627 19.8638 89.0501 19.7651 88.9982 19.6715C88.9488 19.5976 88.9216 19.5409 88.914 19.4817C88.9678 19.4347 89.0216 19.3877 89.0755 19.3407C89.0906 19.4591 89.145 19.5725 89.1773 19.6686C89.2317 19.782 89.2665 19.8978 89.2766 19.9768C89.2817 20.0162 89.2671 20.0582 89.233 20.1027C89.1766 20.13 89.1228 20.177 89.0665 20.2043C89.0956 20.1203 89.1077 20.0586 89.1001 19.9994L89.0754 19.9624ZM91.4052 19.0019C91.4571 19.0956 91.433 19.219 91.4115 19.3621C91.3874 19.4855 91.383 19.6065 91.3982 19.7248C91.3368 19.7127 91.295 19.698 91.2336 19.6858C91.1425 19.5972 91.0906 19.5035 91.1001 19.4221C91.0951 19.3826 91.1071 19.3209 91.1216 19.279C91.1508 19.195 91.1577 19.0938 91.1451 18.9952C91.14 18.9557 91.1179 18.9385 91.1128 18.899C91.1938 18.9087 91.2749 18.9184 91.3559 18.928C91.378 18.9452 91.4027 18.9822 91.4052 19.0019ZM89.859 19.5411C89.8318 19.4844 89.8046 19.4277 89.7773 19.3711C89.7476 19.2946 89.7008 19.2405 89.7128 19.1788C89.7077 19.1393 89.7223 19.0973 89.7369 19.0554C89.7957 19.0478 89.8571 19.06 89.9381 19.0697C89.9432 19.1091 89.9483 19.1486 89.9729 19.1855C89.9976 19.2225 90.0027 19.262 90.0273 19.2989C90.052 19.3358 90.0767 19.3728 90.0818 19.4123C90.1166 19.5281 90.0925 19.6516 90.0045 19.7431C89.9482 19.7703 89.8893 19.7779 89.8526 19.8026C89.8817 19.7187 89.8887 19.6175 89.859 19.5411ZM90.2729 19.3476C90.2457 19.291 90.221 19.254 90.1938 19.1973C90.1691 19.1604 90.1666 19.1407 90.1419 19.1037L90.1394 19.084C90.2229 19.1134 90.2818 19.1058 90.3603 19.0958C90.4191 19.0882 90.4584 19.0832 90.5147 19.0559C90.5198 19.0954 90.5027 19.1176 90.4881 19.1596C90.4736 19.2016 90.4615 19.2633 90.4495 19.325C90.4425 19.4262 90.4773 19.5421 90.5292 19.6357C90.49 19.6407 90.4703 19.6432 90.4311 19.6483C90.3722 19.6558 90.3134 19.6633 90.2767 19.6881C90.3007 19.5647 90.3077 19.4635 90.2729 19.3476ZM90.897 18.9267C90.9217 18.9636 90.9464 19.0006 90.9514 19.04C90.959 19.0992 90.947 19.161 90.9375 19.2424C90.9254 19.3041 90.9134 19.3658 90.9014 19.4275C90.8919 19.509 90.9216 19.5854 90.971 19.6593C90.9096 19.6471 90.8507 19.6546 90.7893 19.6424C90.7007 19.5736 90.6463 19.4602 90.6533 19.359C90.6482 19.3196 90.6628 19.2776 90.6774 19.2356C90.6919 19.1937 90.7065 19.1517 90.7014 19.1122C90.716 19.0702 90.7109 19.0308 90.7059 18.9913C90.7622 18.964 90.8381 18.9342 90.897 18.9267ZM89.5236 19.1028C89.5261 19.1225 89.5115 19.1645 89.5141 19.1842C89.5267 19.2829 89.559 19.379 89.6083 19.4529C89.633 19.4898 89.6602 19.5465 89.6653 19.586C89.695 19.6624 89.6539 19.8081 89.588 19.9168C89.5513 19.9415 89.495 19.9688 89.4583 19.9936C89.4602 19.8529 89.4058 19.7396 89.3488 19.6065C89.2944 19.4931 89.2375 19.36 89.2641 19.2564C89.2615 19.2366 89.2786 19.2144 89.2957 19.1921C89.3546 19.1846 89.428 19.1351 89.5236 19.1028ZM90.4817 20.0429C90.6975 20.0152 90.938 20.0245 91.1861 20.093C90.9855 20.239 90.819 20.3406 90.5639 20.3733C90.2893 20.4085 90.0829 20.3547 89.8323 20.2665C90.0355 20.1402 90.2463 20.0731 90.4817 20.0429ZM92.1375 19.2691C92.14 19.2888 92.1451 19.3283 92.1501 19.3677C92.1526 19.3875 92.1552 19.4072 92.1406 19.4492C92.1457 19.4886 92.1336 19.5503 92.1412 19.6095C92.1564 19.7279 92.2083 19.8215 92.2602 19.9152L92.3393 20.0655C92.2975 20.0508 92.2336 20.0189 92.1918 20.0042C92.0982 19.8958 91.9823 19.7703 91.9722 19.6914L91.9646 19.6322C91.9545 19.5532 91.9444 19.4743 91.9564 19.4126C91.9685 19.3509 92.0001 19.2867 92.0096 19.2052C92.0514 19.2199 92.0932 19.2346 92.1375 19.2691ZM91.8153 19.0897C91.8255 19.1687 91.7963 19.2526 91.7672 19.3366C91.7406 19.4403 91.7533 19.5389 91.7659 19.6376L91.7735 19.6968C91.7811 19.756 91.8058 19.7929 91.833 19.8496C91.7716 19.8374 91.7077 19.8055 91.6463 19.7933C91.6241 19.7761 91.6191 19.7366 91.6165 19.7169C91.5843 19.6208 91.6109 19.5171 91.6349 19.3937C91.659 19.2702 91.6805 19.1271 91.6457 19.0112C91.6875 19.0259 91.7514 19.0578 91.8153 19.0897ZM88.7355 19.645C88.7628 19.7017 88.7874 19.7386 88.8146 19.7953C88.8419 19.852 88.852 19.9309 88.8621 20.0098L88.8697 20.069C88.8798 20.148 88.7652 20.3432 88.7019 20.4716C88.6652 20.4964 88.6285 20.5211 88.5918 20.5459L88.645 20.3385C88.6716 20.2348 88.6982 20.1311 88.683 20.0127C88.6754 19.9536 88.6507 19.9166 88.6431 19.8574C88.6406 19.8377 88.6184 19.8205 88.6134 19.781C88.6109 19.7613 88.6109 19.7613 88.6083 19.7415C88.6672 19.734 88.7014 19.6895 88.7355 19.645ZM88.4767 19.959C88.4817 19.9984 88.5039 20.0157 88.5089 20.0551C88.519 20.134 88.4899 20.218 88.4804 20.2994L88.3766 20.7339C88.3399 20.7587 88.3031 20.7835 88.2861 20.8057C88.3006 20.7637 88.3177 20.7415 88.3127 20.702C88.3538 20.5563 88.3753 20.4132 88.3551 20.2553L88.3475 20.1961C88.345 20.1764 88.3425 20.1567 88.3399 20.1369C88.3937 20.0899 88.4254 20.0257 88.4767 19.959ZM88.1063 20.6482C88.0747 20.7125 88.0626 20.7742 88.0335 20.8581L87.9531 21.0088C87.9164 21.0336 87.8797 21.0583 87.843 21.0831C87.8696 20.9794 87.8962 20.8757 87.9057 20.7943L87.9228 20.772C87.9886 20.6633 88.0741 20.5521 88.1374 20.4236C88.1475 20.5026 88.138 20.584 88.1063 20.6482ZM88.743 20.9477C89 20.7743 89.2373 20.6035 89.4772 20.4524L89.6025 20.4965C89.9367 20.6141 90.2266 20.6973 90.5994 20.6495C90.9918 20.5992 91.2291 20.4284 91.4836 20.2353L91.557 20.1858C91.8272 20.2715 92.1196 20.3744 92.4145 20.4971C92.6873 20.6025 92.9797 20.7054 93.25 20.7911C92.7752 21.7545 92.3415 22.5722 91.3017 22.7055L90.301 22.8338L90.2814 22.8363C89.2611 22.9671 88.6378 22.3049 87.9575 21.5097C88.2145 21.3363 88.4689 21.1433 88.743 20.9477ZM94.5077 13.49C94.5273 13.4874 94.5273 13.4874 94.5444 13.4652C94.5938 13.5391 94.6216 13.7561 94.6539 13.8523C94.664 13.9312 94.6716 13.9904 94.6988 14.0471C94.8183 14.5131 94.7563 14.9623 94.6993 15.4509C94.6707 15.6953 94.6422 15.9396 94.6359 16.2011C94.6314 16.322 94.627 16.4429 94.6004 16.5466L94.307 14.2578C94.319 14.1961 94.331 14.1343 94.3602 14.0504C94.3792 13.8875 94.4343 13.5395 94.5077 13.49ZM89.5208 10.0579C88.9816 9.58554 88.4569 9.69291 88.1727 9.80957C88.1727 9.80957 88.0967 9.83936 88.0037 9.8914C87.9202 9.862 87.8391 9.85232 87.7556 9.82292C88.1645 9.59 88.5518 9.50023 88.9006 9.57587C89.2689 9.64898 89.5372 9.87531 89.7195 10.0525C89.6606 10.06 89.6018 10.0676 89.5208 10.0579ZM89.2018 10.0587C88.922 10.0545 88.6176 10.0133 88.3328 9.96954C88.4284 9.93724 88.5461 9.92214 88.6638 9.90705C88.8429 9.90415 89.0296 9.96044 89.2018 10.0587ZM89.9746 10.0198C89.7872 9.80315 89.4449 9.46598 88.9538 9.36849C88.5044 9.2857 88.0215 9.40778 87.5246 9.7322C87.5025 9.71498 87.4828 9.7175 87.4607 9.70028C87.4189 9.68558 87.3771 9.67088 87.3158 9.65869C87.7588 9.38128 88.2683 9.15552 88.8107 9.18626C89.3139 9.22204 89.7664 9.48493 90.1708 9.99465C90.0923 10.0047 90.0334 10.0123 89.9746 10.0198ZM90.5777 9.90237C90.0917 9.22261 89.5038 8.83669 88.8412 8.8013C87.3342 8.7137 85.9834 10.3108 85.9321 10.3776C85.8809 10.4443 85.81 10.5136 85.7587 10.5803C86.3442 9.70301 87.219 8.74853 88.3374 8.60516C89.7893 8.41903 90.5734 9.40153 90.8252 9.81048C90.7296 9.84278 90.6537 9.87258 90.5777 9.90237ZM84.9403 10.8858C84.9669 10.7821 84.9935 10.6784 85.0201 10.5747C85.0176 10.555 85.0347 10.5327 85.0321 10.513C85.0587 10.4093 85.0879 10.3254 85.1366 10.2389C85.1657 10.1549 85.2145 10.0685 85.2436 9.9845C85.2411 9.96477 85.2581 9.94253 85.2581 9.94253C85.2873 9.85857 85.3385 9.79183 85.3677 9.70787C85.3848 9.68562 85.3848 9.68562 85.4018 9.66338C85.4335 9.59915 85.4651 9.53493 85.4993 9.49043C85.5164 9.46819 85.5164 9.46819 85.5335 9.44594C85.5652 9.38171 85.6164 9.31497 85.6506 9.27048C85.6677 9.24823 85.6848 9.22599 85.7019 9.20374C85.7361 9.15925 85.7703 9.11475 85.8044 9.07026C85.8215 9.04801 85.8386 9.02577 85.8753 9.001C85.9095 8.95651 85.9462 8.93175 85.9633 8.9095C85.9804 8.88725 85.9975 8.86501 86.0342 8.84025C86.0684 8.79575 86.1051 8.77099 86.1393 8.7265C86.176 8.70173 86.1931 8.67949 86.2298 8.65472C86.2444 8.61275 86.264 8.61023 86.2811 8.58798C86.3349 8.54098 86.3887 8.49397 86.445 8.46669C86.4646 8.46417 86.4621 8.44444 86.4817 8.44193C86.5184 8.41717 86.5551 8.3924 86.5722 8.37016C86.5919 8.36764 86.5893 8.34791 86.6089 8.34539C86.6627 8.29839 86.7191 8.27111 86.7754 8.24383C86.795 8.24132 86.795 8.24132 86.8121 8.21907C86.8292 8.19682 86.8685 8.19179 86.8855 8.16954C86.9982 8.11499 87.0912 8.06295 87.2039 8.0084C87.2235 8.00588 87.2235 8.00588 87.2406 7.98363C87.3362 7.95133 87.4489 7.89677 87.5444 7.86446C87.6008 7.83719 87.6596 7.82964 87.6989 7.82461C87.7577 7.81707 87.8141 7.78979 87.8533 7.78476C87.9122 7.77721 87.9881 7.74742 88.047 7.73987C88.0862 7.73484 88.1255 7.72981 88.1647 7.72478C88.5153 7.65978 88.8736 7.65397 89.2147 7.6704C89.659 7.71372 90.0691 7.80154 90.4083 7.95861C90.4279 7.9561 90.4305 7.97583 90.4501 7.97331C90.514 8.00523 90.5754 8.01742 90.6197 8.05185C90.6393 8.04933 90.6419 8.06907 90.6615 8.06655C90.8336 8.16482 90.9861 8.2656 91.1019 8.39115C91.1019 8.39115 91.1045 8.41088 91.1241 8.40836C91.1488 8.44531 91.1931 8.47974 91.2178 8.51669C91.3361 8.66197 91.4202 8.85174 91.4088 9.07382C91.3993 9.15526 91.3702 9.23921 91.3411 9.32317C91.0101 8.76392 90.1375 7.71255 88.3324 7.94395C86.802 8.14014 85.517 9.62855 84.9258 10.9278C84.9232 10.908 84.9232 10.908 84.9403 10.8858C84.9232 10.908 84.9403 10.8858 84.9403 10.8858ZM90.9917 9.70891C90.6981 9.28527 89.8621 8.20914 88.2925 8.41036C86.3697 8.65685 85.1935 10.9937 84.8212 11.8236C85.1353 10.5399 86.5551 8.3924 88.3602 8.161C90.1653 7.9296 90.9645 9.03049 91.2265 9.51836C91.1556 9.58762 91.0847 9.65687 90.9917 9.70891ZM85.5554 17.7061C85.5231 17.61 85.4687 17.4966 85.4339 17.3808C85.3618 17.1293 85.2726 16.9001 85.1834 16.6708C85.0049 16.2124 84.8316 15.7934 84.8297 15.3122C84.8247 15.2728 84.8145 15.1939 84.824 15.1124C84.8114 15.0138 84.8032 14.7942 84.8323 14.7102C84.8323 14.7102 84.8519 14.7077 84.8545 14.7275C84.938 14.7569 85.0987 15.0772 85.1557 15.2103C85.1854 15.2867 85.2322 15.3409 85.2594 15.3976L85.5554 17.7061V17.7061ZM85.6614 15.2658L85.6588 15.2461C85.6563 15.2263 85.4146 14.2746 85.352 13.9417C85.2767 13.5101 85.1433 12.6247 85.1566 12.262L85.1661 12.1805L85.1636 12.1608C85.1782 12.1188 85.2149 12.094 85.2294 12.0521C85.7074 11.2688 86.5752 9.79374 87.2904 10.0831C88.465 10.5342 90.2542 10.6458 91.1942 10.044C91.5442 9.81859 91.7613 9.48991 91.7746 9.1272C91.7841 9.04576 91.7715 8.9471 91.7614 8.86817C92.6271 9.39898 93.2682 10.1993 93.5542 11.1854C93.6585 11.5331 93.7724 12.421 93.7888 12.8601C93.8096 13.1783 93.8184 14.18 93.8209 14.1997L93.8234 14.2195C93.8285 14.2589 94.225 17.1964 94.1059 18.1343C93.9989 19.0104 93.8704 19.4079 93.6513 19.8772L93.588 20.0057C93.519 19.9343 93.4304 19.8654 93.3615 19.7941C92.6843 19.1789 91.985 18.5465 91.1407 18.4943C91.2338 18.4423 91.3072 18.3928 91.3534 18.2866C91.4363 18.1556 91.4332 17.9755 91.3712 17.8029C91.2794 17.554 91.0953 17.5174 90.9699 17.4733C90.9282 17.4586 90.8864 17.4439 90.8446 17.4292C90.5497 17.3066 90.5168 17.0501 90.5004 16.6109C90.4878 16.5123 90.4947 16.4111 90.4796 16.2927L90.4695 16.2138C90.434 15.9375 90.3531 15.3061 90.4449 14.9334C90.5335 15.0022 90.6538 15.0069 90.769 14.972C90.9234 14.9322 91.0753 14.8726 91.2443 14.7908C91.4525 14.7039 91.6975 14.5923 91.9892 14.5348C92.6291 14.3926 93.45 14.7286 93.45 14.7286C93.4721 14.7458 93.4917 14.7433 93.531 14.7383C93.5702 14.7333 93.6069 14.7085 93.624 14.6863C93.6582 14.6418 93.6677 14.5603 93.6405 14.5036C93.3096 13.9444 92.5058 13.5861 91.6767 13.6523C91.0634 13.6908 90.5786 13.9535 90.3741 14.3809L90.3716 14.3611C89.9532 14.6755 90.0202 15.5093 90.1334 16.2368L90.1435 16.3157C90.1561 16.4144 90.1688 16.5131 90.1618 16.6142C90.1978 17.0508 90.2193 17.5294 90.7478 17.7625C90.8313 17.7919 90.8952 17.8238 90.9541 17.8163C91.0572 17.8432 91.0572 17.8432 91.0648 17.9024C91.092 17.9591 91.0971 17.9985 91.0825 18.0405C91.0655 18.0627 91.0484 18.085 91.0091 18.09C90.7173 18.1475 90.6319 18.2587 90.5857 18.3649C90.5857 18.3649 90.5882 18.3847 90.5857 18.3649C90.4781 18.4589 90.4585 18.4615 90.2819 18.4841C90.2034 18.4942 90.1395 18.4622 90.0534 18.4131C89.9452 18.3468 89.773 18.2485 89.5376 18.2787C89.518 18.2812 89.4395 18.2912 89.4199 18.2938C89.4199 18.2938 89.3977 18.2765 89.3851 18.1779C89.3775 18.1187 89.375 18.099 89.375 18.099C89.375 18.099 89.4117 18.0742 89.4288 18.0519C89.4655 18.0272 89.5218 17.9999 89.5927 17.9307L89.3339 17.6229C89.2972 17.6476 89.2604 17.6724 89.2237 17.6972C89.0649 17.8579 88.918 17.957 88.9585 18.2727C88.9869 18.6501 89.2179 18.7408 89.3774 18.7404C88.5761 19.0237 88.076 19.7897 87.5956 20.5533C87.5297 20.662 87.4639 20.7707 87.3785 20.8819C86.957 20.3945 86.7127 20.0447 86.3584 19.1475C86.0237 18.2478 85.6664 15.3053 85.6614 15.2658ZM92.6557 14.2889C92.6089 14.2348 92.5621 14.1806 92.5349 14.1239C92.7019 14.1827 92.8715 14.2613 93.0019 14.3448C92.8791 14.3205 92.7785 14.3133 92.6557 14.2889ZM92.2083 14.0655C92.2551 14.1197 92.3019 14.1738 92.3513 14.2477C92.3538 14.2675 92.376 14.2847 92.376 14.2847C92.3171 14.2922 92.2557 14.2801 92.1772 14.2901C92.1304 14.2359 92.0836 14.1818 92.0342 14.1079C92.0121 14.0907 92.0095 14.0709 91.9849 14.034C92.0855 14.0411 92.1469 14.0533 92.2083 14.0655ZM91.6855 14.0323C91.7051 14.0297 91.7247 14.0272 91.7444 14.0247C91.7912 14.0789 91.838 14.133 91.8874 14.2069C91.9121 14.2439 91.9342 14.2611 91.9589 14.298C91.9393 14.3006 91.9393 14.3006 91.9197 14.3031C91.8804 14.3081 91.8437 14.3329 91.7848 14.3404C91.7627 14.3232 91.738 14.2863 91.7133 14.2493C91.664 14.1754 91.6146 14.1015 91.5653 14.0276C91.6045 14.0226 91.6463 14.0373 91.6855 14.0323ZM91.3323 14.0775C91.4235 14.1661 91.495 14.2572 91.5469 14.3509C91.5494 14.3706 91.5715 14.3878 91.5741 14.4075C91.5177 14.4348 91.4393 14.4449 91.3829 14.4722C91.3507 14.376 91.2962 14.2627 91.2222 14.1518C91.2197 14.1321 91.1975 14.1149 91.1975 14.1149C91.2564 14.1073 91.2931 14.0826 91.3323 14.0775ZM91.0253 14.6383C91.0101 14.52 90.9583 14.4263 90.9064 14.3327C90.9038 14.313 90.8842 14.3155 90.8817 14.2957C90.9184 14.271 90.9722 14.224 91.0285 14.1967C91.0507 14.2139 91.0728 14.2311 91.0975 14.2681C91.169 14.3592 91.2013 14.4553 91.2336 14.5515C91.1943 14.5565 91.1772 14.5788 91.138 14.5838C91.0816 14.6111 91.062 14.6136 91.0253 14.6383ZM90.7177 14.417C90.7399 14.4343 90.7399 14.4343 90.7177 14.417C90.7893 14.5082 90.8215 14.6043 90.8342 14.703C90.7975 14.7277 90.7386 14.7353 90.6994 14.7403C90.6405 14.7478 90.6183 14.7306 90.5962 14.7134C90.574 14.6962 90.5715 14.6765 90.5861 14.6345C90.6177 14.5703 90.6665 14.4838 90.7177 14.417ZM89.24 25.1358C89.2596 25.1333 89.2596 25.1333 89.24 25.1358L89.2723 25.2319L89.0172 25.2646L88.9919 25.0673C89.0755 25.0967 89.1565 25.1064 89.24 25.1358ZM89.303 27.4943L89.298 27.4549L89.2727 27.2575L89.5278 27.2248L89.5556 27.4419L89.3005 27.4746L89.303 27.4943ZM89.6955 27.444L89.6651 27.2072L89.9202 27.1745L89.948 27.3916L89.6929 27.4243L89.6955 27.444ZM90.1075 27.3912L90.0771 27.1544L90.3322 27.1217L90.36 27.3388L90.105 27.3715L90.1075 27.3912ZM90.4999 27.3409L90.4695 27.1041L90.7246 27.0714L90.7524 27.2885L90.4974 27.3212L90.4999 27.3409ZM90.8923 27.2906L90.8619 27.0538L91.117 27.0211L91.1448 27.2382L90.8898 27.2709L90.8923 27.2906ZM91.267 27.1022L91.3214 27.2155L91.2822 27.2205L91.267 27.1022ZM91.3632 27.2302L91.4138 27.0031L91.5119 26.9905L91.5398 27.2076L91.3632 27.2302ZM91.6967 27.1875L91.6664 26.9507L91.9214 26.918L91.9493 27.135L91.6942 27.1677L91.6967 27.1875ZM92.0891 27.1372L92.0588 26.9004L92.3139 26.8677L92.3417 27.0847L92.0866 27.1174L92.0891 27.1372ZM92.4815 27.0868L92.4512 26.8501L92.7063 26.8174L92.7341 27.0344L92.479 27.0671L92.4815 27.0868ZM92.874 27.0365L92.8436 26.7998L93.0987 26.7671L93.1265 26.9841L92.8714 27.0168L92.874 27.0365ZM93.286 26.9837L93.2556 26.7469L93.5107 26.7142L93.536 26.9116L93.5411 26.951L93.286 26.9837Z" fill="#1C1C1C"/>
<path d="M14.165 18.785V22.1H16.565V20.33C16.565 20.12 16.685 20 16.895 20H22.52C22.7 20 22.805 20.135 22.805 20.33V22.1H25.205V18.785C25.205 18.02 24.935 17.75 24.17 17.75H23.99V10.37C23.99 9.60499 23.66 9.27499 22.895 9.27499H15.665V11.525H16.655V11.81C16.655 13.745 16.445 15.845 15.35 17.75H15.2C14.435 17.75 14.165 18.02 14.165 18.785ZM18.05 17.765C18.935 16.115 19.205 13.73 19.205 12.02V11.525H20.99C21.2 11.525 21.32 11.645 21.32 11.855V17.765H18.05Z" fill="white"/>
<path d="M25.6683 16.16C25.6683 18.575 27.6033 20.18 30.0333 20.18C32.4633 20.18 34.3983 18.575 34.3983 16.16C34.3983 13.73 32.4633 12.095 30.0183 12.095C27.6033 12.095 25.6683 13.73 25.6683 16.16ZM28.2783 16.16C28.2783 14.99 29.0883 14.255 30.0333 14.255C30.9783 14.255 31.7883 14.99 31.7883 16.16C31.7883 17.315 30.9783 18.02 30.0333 18.02C29.0883 18.02 28.2783 17.315 28.2783 16.16Z" fill="white"/>
<path d="M39.9587 20H42.6437V16.685H44.1887C46.2737 16.685 47.6837 15.125 47.6837 12.965C47.6837 10.805 46.2737 9.27499 44.1887 9.27499H38.9837V11.525H39.9587V20ZM42.6437 14.435V11.525H43.6937C44.5187 11.525 44.9387 12.11 44.9387 12.965C44.9387 13.82 44.5187 14.435 43.6487 14.435H42.6437Z" fill="white"/>
<path d="M48.0511 16.16C48.0511 18.575 49.9861 20.18 52.4161 20.18C54.8461 20.18 56.7811 18.575 56.7811 16.16C56.7811 13.73 54.8461 12.095 52.4011 12.095C49.9861 12.095 48.0511 13.73 48.0511 16.16ZM50.6611 16.16C50.6611 14.99 51.4711 14.255 52.4161 14.255C53.3611 14.255 54.1711 14.99 54.1711 16.16C54.1711 17.315 53.3611 18.02 52.4161 18.02C51.4711 18.02 50.6611 17.315 50.6611 16.16Z" fill="white"/>
<path d="M58.295 20H60.89V14.45H61.595C61.805 14.45 61.925 14.57 61.925 14.78V15.095H64.025V13.37C64.025 12.605 63.695 12.275 62.93 12.275H57.395V14.45H58.295V20Z" fill="white"/>
<path d="M64.4709 17.84C64.4709 19.235 65.5509 20.18 67.0059 20.18C68.5959 20.18 69.2559 19.055 69.2559 19.055H69.2859V19.19C69.2859 19.535 69.5559 20 70.3059 20H72.5559V17.825H71.9859C71.7759 17.825 71.6559 17.705 71.6559 17.495V15.245C71.6559 13.415 70.7709 12.095 67.9809 12.095C67.1859 12.095 64.9959 12.2 64.9959 13.91V14.765H67.3959V14.42C67.3959 14.12 67.7409 14.045 68.0709 14.045C68.7159 14.045 69.0609 14.315 69.0609 15.05V15.185H68.9559C67.7709 15.185 64.4709 15.395 64.4709 17.84ZM67.0359 17.57C67.0359 16.925 67.9809 16.67 68.8059 16.67H69.0909V16.88C69.0909 17.51 68.5059 18.245 67.7709 18.245C67.2909 18.245 67.0359 17.915 67.0359 17.57Z" fill="white"/>
</svg>
