<svg width="17" height="16" viewBox="0 0 17 16" fill="none" xmlns="http://www.w3.org/2000/svg">
<path fill-rule="evenodd" clip-rule="evenodd" d="M5.66667 6.58823C5.66667 3.98925 7.78088 1.88235 10.3889 1.88235C12.9969 1.88235 15.1111 3.98925 15.1111 6.58823C15.1111 9.18722 12.9969 11.2941 10.3889 11.2941C7.78088 11.2941 5.66667 9.18722 5.66667 6.58823ZM10.3889 0C6.73767 0 3.77778 2.94965 3.77778 6.58823C3.77778 8.14037 4.31638 9.56714 5.2175 10.6931L2.11829 13.7815C1.97555 13.9238 1.77175 14.0164 1.55948 14.0693C1.45876 14.0944 1.37073 14.1068 1.31089 14.1128C1.28144 14.1157 1.26018 14.1169 1.24927 14.1174L1.24373 14.1176H0V16H1.25139V15.0588C1.25139 16 1.25235 16 1.25266 16L1.25403 16L1.25703 16L1.2641 15.9999L1.28241 15.9996C1.29643 15.9993 1.31408 15.9988 1.33504 15.9978C1.37688 15.9959 1.43237 15.9924 1.49884 15.9858C1.63084 15.9726 1.81138 15.9468 2.0176 15.8954C2.41923 15.7954 2.98278 15.5821 3.45393 15.1126L6.59384 11.9835C7.66794 12.7352 8.97671 13.1765 10.3889 13.1765C14.0401 13.1765 17 10.2268 17 6.58823C17 2.94965 14.0401 0 10.3889 0Z" fill="#0F2647"/>
</svg>
